<svg xmlns="http://www.w3.org/2000/svg" viewBox="0 0 200 200">
  <circle cx="100" cy="100" r="90" fill="#f5f5dc" />
  <circle cx="100" cy="85" r="70" fill="#f0e6d2" />
  <!-- 头发 - 短发造型 -->
  <path d="M50 70 Q70 40 100 40 Q130 40 150 70" fill="#4a3728" stroke="#3a2718" stroke-width="2" />
  <!-- 侧边短发 -->
  <path d="M45 90 Q60 70 75 65" fill="none" stroke="#4a3728" stroke-width="4" />
  <path d="M155 90 Q140 70 125 65" fill="none" stroke="#4a3728" stroke-width="4" />
  <!-- 短发末端 -->
  <path d="M45 90 Q50 100 60 110" fill="none" stroke="#4a3728" stroke-width="4" />
  <path d="M155 90 Q150 100 140 110" fill="none" stroke="#4a3728" stroke-width="4" />
  <!-- 刘海 - 时尚侧分 -->
  <path d="M60 60 Q80 55 100 60 Q120 65 140 60" fill="#4a3728" stroke="#3a2718" stroke-width="2" />
  <path d="M70 55 Q85 50 100 55" fill="#4a3728" stroke="#3a2718" stroke-width="2" />
  <!-- 耳环 -->
  <circle cx="45" cy="100" r="3" fill="#ffd700" />
  <circle cx="155" cy="100" r="3" fill="#ffd700" />
  <!-- 眼睛 -->
  <ellipse cx="75" cy="90" rx="9" ry="7" fill="white" stroke="#333" stroke-width="1" />
  <ellipse cx="125" cy="90" rx="9" ry="7" fill="white" stroke="#333" stroke-width="1" />
  <circle cx="75" cy="90" r="3.5" fill="#5d3c1f" />
  <circle cx="125" cy="90" r="3.5" fill="#5d3c1f" />
  <!-- 眉毛 - 修饰过的眉毛 -->
  <path d="M65 75 Q75 72 85 75" fill="none" stroke="#333" stroke-width="2" />
  <path d="M115 75 Q125 72 135 75" fill="none" stroke="#333" stroke-width="2" />
  <!-- 嘴巴 - 带口红 -->
  <path d="M85 120 Q100 125 115 120" fill="none" stroke="#d63964" stroke-width="2.5" />
  <!-- 眼影 -->
  <path d="M65 85 Q75 82 85 85" fill="#c8a2c8" opacity="0.3" />
  <path d="M115 85 Q125 82 135 85" fill="#c8a2c8" opacity="0.3" />
  <!-- 腮红 -->
  <ellipse cx="65" cy="105" rx="10" ry="6" fill="#e8a798" opacity="0.4" />
  <ellipse cx="135" cy="105" rx="10" ry="6" fill="#e8a798" opacity="0.4" />
</svg>