<svg xmlns="http://www.w3.org/2000/svg" viewBox="0 0 200 200">
  <circle cx="100" cy="100" r="90" fill="#f5f5dc" />
  <circle cx="100" cy="85" r="70" fill="#f0e6d2" />
  <!-- 头发 -->
  <path d="M50 70 Q70 40 100 40 Q130 40 150 70" fill="#663300" stroke="#4d2600" stroke-width="2" />
  <path d="M40 80 Q60 50 80 50" fill="none" stroke="#663300" stroke-width="4" />
  <path d="M160 80 Q140 50 120 50" fill="none" stroke="#663300" stroke-width="4" />
  <!-- 刘海 -->
  <path d="M70 60 Q85 70 100 60 Q115 70 130 60" fill="#663300" stroke="#4d2600" stroke-width="2" />
  <!-- 眼睛 -->
  <ellipse cx="75" cy="90" rx="10" ry="8" fill="white" stroke="#333" stroke-width="1" />
  <ellipse cx="125" cy="90" rx="10" ry="8" fill="white" stroke="#333" stroke-width="1" />
  <circle cx="75" cy="90" r="4" fill="#333" />
  <circle cx="125" cy="90" r="4" fill="#333" />
  <!-- 眉毛 -->
  <path d="M65 75 Q75 70 85 75" fill="none" stroke="#333" stroke-width="2" />
  <path d="M115 75 Q125 70 135 75" fill="none" stroke="#333" stroke-width="2" />
  <!-- 嘴巴 -->
  <path d="M85 120 Q100 125 115 120" fill="none" stroke="#333" stroke-width="2" />
</svg>