<?xml version="1.0" standalone="no"?>
<!DOCTYPE svg PUBLIC "-//W3C//DTD SVG 20010904//EN"
 "http://www.w3.org/TR/2001/REC-SVG-20010904/DTD/svg10.dtd">
<svg version="1.0" xmlns="http://www.w3.org/2000/svg"
 width="204.000000pt" height="192.000000pt" viewBox="0 0 204.000000 192.000000"
 preserveAspectRatio="xMidYMid meet">

<g transform="translate(0.000000,192.000000) scale(0.100000,-0.100000)"
fill="#000000" stroke="none">
<path d="M617 1889 c-66 -43 -133 -122 -173 -201 -23 -46 -40 -68 -52 -68 -10
0 -54 -18 -99 -39 -199 -96 -317 -316 -284 -531 12 -79 73 -220 109 -253 18
-16 18 -22 6 -75 -40 -170 18 -356 151 -481 105 -98 228 -144 377 -139 67 1
91 -2 105 -14 10 -8 40 -32 66 -52 l49 -36 254 0 255 0 43 29 c65 45 138 130
174 203 29 59 36 66 74 77 185 55 331 228 360 426 18 127 -18 266 -95 367 -33
43 -33 44 -20 93 42 163 -20 360 -152 484 -105 98 -228 144 -377 139 -67 -1
-91 2 -105 14 -10 8 -40 32 -66 52 l-49 36 -252 0 -253 0 -46 -31z m469 -83
c50 -25 73 -41 66 -48 -5 -5 -106 -65 -223 -132 -167 -95 -215 -127 -220 -146
-4 -14 -7 -152 -8 -307 -1 -156 -4 -283 -7 -283 -3 0 -44 23 -91 51 l-85 51 4
277 c4 267 5 278 28 335 27 64 101 153 156 187 66 40 143 59 226 56 65 -3 89
-10 154 -41z m488 -155 c76 -37 140 -97 178 -167 32 -58 55 -179 42 -217 l-9
-26 -165 95 c-260 151 -266 154 -286 154 -11 0 -134 -65 -273 -145 -140 -79
-258 -142 -262 -139 -11 6 -12 175 -1 189 6 10 341 204 440 255 63 33 97 39
189 36 68 -2 92 -8 147 -35z m-1171 -691 c4 -8 122 -80 262 -160 140 -80 255
-148 255 -151 0 -8 -169 -100 -178 -96 -4 2 -106 60 -227 128 -241 136 -294
178 -342 276 -26 53 -28 67 -28 168 0 103 2 113 30 164 37 68 107 139 166 168
l44 22 5 -252 c3 -139 9 -259 13 -267z m1122 280 c237 -135 293 -180 342 -271
26 -50 28 -62 28 -169 0 -126 -10 -157 -78 -244 -28 -36 -138 -116 -159 -116
-4 0 -8 114 -8 253 0 138 -4 258 -8 265 -7 11 -79 53 -414 245 -60 34 -108 65
-108 68 0 8 164 99 175 96 6 -1 110 -58 230 -127z m-384 -91 l109 -62 0 -127
0 -127 -109 -62 c-59 -33 -114 -61 -121 -61 -14 0 -185 95 -212 118 -15 13
-18 33 -18 133 0 82 4 122 13 129 22 20 202 119 216 120 8 0 63 -28 122 -61z
m295 -170 l84 -50 0 -243 c0 -134 -5 -268 -10 -297 -23 -124 -105 -229 -220
-283 -58 -28 -75 -31 -161 -31 -90 0 -99 2 -173 39 -43 21 -74 42 -69 46 7 8
154 93 356 208 52 29 81 53 88 69 6 15 8 143 7 309 -2 156 1 284 6 284 4 0 46
-23 92 -51z m-186 -358 l0 -98 -217 -123 c-307 -175 -281 -164 -398 -165 -93
0 -105 2 -167 33 -76 37 -143 100 -181 170 -29 54 -50 161 -39 209 l7 31 115
-65 c63 -36 160 -92 216 -124 55 -33 109 -59 120 -59 11 0 64 25 119 56 144
81 303 173 355 205 69 43 70 42 70 -70z"/>
</g>
</svg>
